# xmcd CD database file
#
# Track frame offsets:
#	150
#	24814
#	38797
#	55976
#	70036
#	88351
#	105367
#	125069
#	140991
#	156957
#
# Disc length: 2403 seconds
#
# Revision: 9
# Processed by: cddbd v1.5.2PL0 Copyright (c) Steve Scherf et al.
# Submitted via: CDex 1.51
#
DISCID=8909610a
DTITLE=Accept - Metal Heart (Japanese MHCP 787)
DYEAR=1985
DGENRE=Heavy Metal
TTITLE0=Metal Heart
TTITLE1=Midnight Mover
TTITLE2=Up To The Limit
TTITLE3=Wrong Is Right
TTITLE4=Screaming For A Love-Bite
TTITLE5=Too High To Get It Right
TTITLE6=Dogs On Leads
TTITLE7=Teach Us To Survive
TTITLE8=Living For Tonite
TTITLE9=Bound To Fail
EXTD=YEAR: 1985
EXTT0=
EXTT1=
EXTT2=
EXTT3=
EXTT4=
EXTT5=
EXTT6=
EXTT7=
EXTT8=
EXTT9=
PLAYORDER=
